<svg width="173" height="225" viewBox="0 0 173 225" fill="none" xmlns="http://www.w3.org/2000/svg">
<path d="M23.6941 22.8866C11.4911 31.9212 7.83966 48.8004 8.55532 63.1806C9.31344 79.1345 14.8434 94.5186 23.8048 107.744C41.8144 134.608 71.071 150.624 100.505 162C118.825 169.089 137.762 174.323 157.099 178.034C158.898 178.376 160.784 176.398 160.88 174.795C161.026 172.75 159.439 171.357 157.641 171.015C141.291 167.828 125.26 163.423 109.55 157.8C95.2245 152.606 81.1677 146.636 68.0331 138.89C42.6773 123.637 20.8076 100.316 16.3244 70.0384C14.2019 55.8095 15.9616 37.4571 28.5491 28.198C30.0292 27.0242 29.951 24.5949 28.8062 23.2526C27.299 21.5547 25.1742 21.7128 23.6941 22.8866Z" fill="#FAE82E"/>
<path d="M113.243 209.68C128.5 199.429 143.757 189.178 159.014 178.927C162.169 176.826 166.732 174.574 166.22 170.078C166.033 167.815 164.526 166.118 162.772 164.615C161.018 163.113 159.293 161.749 157.401 160.275C150.277 154.433 143.044 148.758 135.919 142.916C127.795 136.42 119.808 129.896 111.683 123.4C110.154 122.282 107.84 122.912 106.86 124.412C105.771 126.079 106.343 128.117 107.872 129.235C121.034 139.853 134.196 150.47 147.191 160.979C150.503 163.737 153.924 166.328 157.236 169.086C157.598 169.441 158.381 170.428 158.99 170.588C159.461 170.777 158.881 170.755 159.099 170.421C160.028 169.363 159.012 170.008 159.012 170.008C158.874 170.037 157.394 171.211 157.256 171.24C156.241 171.884 155.363 172.5 154.347 173.145C147.405 177.767 140.491 182.526 133.41 187.177C125.452 192.444 117.522 197.848 109.564 203.115C107.917 204.18 107.162 206.065 108.118 207.878C109.349 209.634 111.734 210.716 113.243 209.68Z" fill="#FAE82E"/>
</svg>
