<svg width="249" height="276" viewBox="0 0 249 276" fill="none" xmlns="http://www.w3.org/2000/svg">
<path d="M2.73009 48.1117C21.9831 37.2546 47.227 38.1974 68.7622 43.3835C88.8176 48.3893 107.458 57.7829 123.63 70.1614C139.802 82.5398 153.735 97.7592 164.343 114.596C176.746 134.275 184.978 155.788 190.394 177.803C195.857 200.106 198.423 222.804 199.476 245.501C199.563 248.306 199.731 251.22 199.818 254.026C199.949 258.234 193.017 258.628 192.887 254.419C192.238 232.262 190.272 210.14 185.751 188.197C181.244 166.722 174.264 145.533 163.34 126.034C154.05 109.162 141.582 93.6551 126.404 80.8093C111.778 68.2515 94.6696 58.2108 75.822 52.1262C66.4957 49.102 56.856 47.2287 47.098 46.5423C36.0554 45.7117 24.5187 46.4636 14.3537 50.1655C11.7471 51.1719 9.3356 52.2143 6.97177 53.5444C2.9622 55.5935 -1.0844 50.1968 2.73009 48.1117Z" fill="#FAE82E"/>
<path d="M155.924 208.078C164.931 219.174 174.02 230.378 183.028 241.474C186.433 245.559 190.244 250.185 195.934 251.236C200.953 252.069 205.965 250.193 209.819 247.449C215.658 243.297 219.083 236.832 222.294 230.981C224.286 227.333 230.771 230.118 228.664 233.838C222.572 244.854 214.315 257.712 199.149 257.993C191.819 258.134 185.975 254.627 181.216 249.639C176.098 244.397 171.735 238.362 167.109 232.651C161.391 225.711 155.87 218.808 150.152 211.868C147.466 208.29 153.204 204.68 155.924 208.078Z" fill="#FAE82E"/>
</svg>
