<svg width="247" height="239" viewBox="0 0 247 239" fill="none" xmlns="http://www.w3.org/2000/svg">
<path d="M74.8593 18.707C87.9623 12.8794 103.666 18.458 115.29 26.5013C128.203 35.394 138.455 48.096 145.34 62.6339C159.413 91.9978 159.314 125.43 155.277 156.618C152.772 176.035 148.441 195.024 142.662 213.57C142.122 215.293 139.613 215.894 138.237 215.148C136.47 214.218 136.04 212.133 136.58 210.41C141.425 194.703 145.112 178.642 147.64 162.228C149.889 147.225 151.371 132.053 150.953 116.756C149.899 87.073 140.54 56.2198 117.429 36.7247C106.575 27.5497 90.5144 19.5834 77.0484 25.6256C75.3943 26.2922 73.411 24.9701 72.8201 23.2922C72.0998 21.1191 73.2052 19.3735 74.8593 18.707Z" fill="#FAE82E"/>
<path d="M193.584 194.83C178.032 202.236 162.481 209.641 146.93 217.047C143.73 218.589 139.779 221.25 136.139 218.346C134.277 216.946 133.483 214.727 132.966 212.406C132.449 210.084 132.038 207.863 131.607 205.439C129.731 196.151 128.046 186.861 126.17 177.573C124.174 167.072 122.092 156.673 120.096 146.172C119.811 144.253 121.374 142.623 123.097 142.609C125.011 142.593 126.511 144.199 126.796 146.118C130.111 163.182 133.426 180.245 136.721 197.106C137.629 201.447 138.346 205.79 139.254 210.131C139.4 210.635 139.902 211.844 139.771 212.452C139.725 212.958 139.962 212.451 139.58 212.454C138.26 212.667 139.262 212.153 139.262 212.153C139.348 212.051 141.011 211.431 141.097 211.329C142.1 210.816 143.017 210.404 144.02 209.89C151.059 206.497 158.205 203.203 165.331 199.708C173.373 195.801 181.522 191.994 189.565 188.087C191.208 187.265 193.162 187.654 194.299 189.465C195.264 191.48 195.141 194.11 193.584 194.83Z" fill="#FAE82E"/>
</svg>
