<svg width="85" height="94" viewBox="0 0 85 94" fill="none" xmlns="http://www.w3.org/2000/svg">
<path d="M52.1588 63.7594C57.2531 67.619 62.0188 71.9449 66.5233 76.6327C67.6144 77.7846 68.7463 79.0007 69.7788 80.201C70.1638 80.6651 70.6978 81.1529 70.9567 81.7699C71.1429 82.2026 71.0257 82.2992 70.6333 82.5251C70.0652 82.8959 69.4651 83.1464 68.8651 83.397C68.1478 83.7442 67.3898 84.0273 66.6318 84.3104C65.2151 84.8924 63.7665 85.3542 62.2772 85.7519C58.9825 86.6124 55.592 87.1122 52.2639 87.2187C51.6001 87.2287 51.0512 88.1209 51.1432 88.8267C51.2174 89.6448 51.81 90.0843 52.5325 90.0259C55.8109 89.9116 59.093 89.4522 62.3381 88.5838C63.9854 88.1536 65.6417 87.6671 67.2163 87.0525C68.6827 86.4784 70.2485 85.92 71.6013 85.0975C73.1211 84.1863 73.9933 82.5389 73.3658 80.7115C72.7613 79.0606 71.3312 77.7973 70.249 76.5892C67.8628 73.9649 65.3595 71.4372 62.7797 69.0703C59.8877 66.4235 56.9281 63.8812 53.8336 61.5479C53.2906 61.1164 52.5185 61.1669 52.0639 61.786C51.5684 62.3411 51.607 63.384 52.1588 63.7594Z" fill="#050404"/>
<path d="M20.9816 1.68317C16.1664 5.06761 12.5395 10.5986 10.6838 16.5253C9.84126 19.2718 9.2969 22.0655 9.29919 24.9458C9.27848 27.6497 9.90382 30.4558 10.673 32.9968C11.0417 34.2072 11.5187 35.3771 12.0045 36.4908C12.6447 37.9169 13.2848 39.3431 14.0421 40.6726C15.5249 43.2114 17.8279 45.0737 20.2111 46.4304C22.7345 47.8668 25.496 48.765 28.2522 49.3743C31.3066 50.0309 34.5546 50.4301 37.6929 50.236C40.9394 50.0014 44.197 48.7318 46.4755 45.9248C48.4433 43.4717 49.176 40.1318 48.1798 37.0941C47.2882 34.361 45.2373 32.193 42.9268 31.0207C40.3767 29.7528 37.5137 29.8177 34.8383 30.9492C29.2124 33.3412 25.0863 39.7723 23.1454 45.9159C22.1323 49.0962 21.5805 52.5799 21.9677 55.9243C22.4188 59.5093 23.9705 62.5774 26.3426 64.969C28.8957 67.5045 32.0206 69.3243 35.0053 71.0642C38.2207 72.9558 41.5125 74.6867 44.8985 76.1446C51.6119 79.1086 58.6487 81.3175 65.8101 82.7398C67.5902 83.0793 69.3296 83.3548 71.1275 83.582C72.7267 83.7776 73.1716 80.9682 71.5725 80.7725C58.1013 78.9845 45.1017 74.2184 33.4328 66.8408C30.8864 65.2279 28.1591 63.4712 26.387 60.829C24.819 58.5071 24.2115 55.5885 24.3671 52.6757C24.5495 49.5942 25.3869 46.559 26.6359 43.8192C27.8174 41.1841 29.3965 38.6118 31.3924 36.624C33.3297 34.6845 35.652 33.2092 38.2436 32.9285C40.3701 32.6893 42.5493 33.7256 44.1337 35.3013C45.6186 36.8613 46.4999 39.0168 46.0445 41.2486C45.4504 44.0344 43.0658 45.9031 40.742 46.7446C37.7685 47.8288 34.43 47.3576 31.4304 46.9978C28.9865 46.6683 26.5373 46.05 24.1823 45.1586C21.8859 44.2189 19.634 42.9982 17.7871 41.1506C16.0306 39.3748 15.004 36.8507 13.9507 34.4951C12.979 32.2677 12.3908 29.8706 12.0191 27.3926C11.6208 25.0831 11.801 22.9805 12.2245 20.6284C13.2012 15.4265 15.7541 10.2438 19.3447 6.55018C20.3178 5.55233 21.3139 4.73093 22.4094 3.92527C22.9865 3.49828 23.0881 2.5352 22.7209 1.95866C22.3129 1.31806 21.5586 1.25618 20.9816 1.68317Z" fill="#050404"/>
</svg>
