<svg width="197" height="415" viewBox="0 0 197 415" fill="none" xmlns="http://www.w3.org/2000/svg">
<path d="M27.4386 157.891C36.7973 174.338 46.1559 190.786 55.5146 207.233C56.7123 203.665 57.86 199.928 59.1951 196.19C44.6995 200.465 30.0163 204.741 15.5207 209.016C13.6087 209.529 11.5738 213.438 11.3005 216.325C10.94 219.551 12.3283 221.076 14.2402 220.563C28.7359 216.288 43.4191 212.012 57.9147 207.737C61.2263 206.881 63.0964 199.238 61.5951 196.695C52.2364 180.247 42.8777 163.8 33.519 147.352C32.4556 145.657 29.9942 146.851 28.4086 149.74C26.6356 152.63 26.5126 156.025 27.4386 157.891Z" fill="#FAE82E"/>
<path d="M58.5089 165.926C63.9891 180.57 70.8663 193.488 78.9876 204.162C83.0482 209.499 87.528 214.319 92.0965 218.793C92.3892 219.137 92.886 220.171 93.2674 220.17C93.8396 220.169 93.2297 220.687 93.6866 219.652C94.6512 217.754 92.784 219.826 92.1742 220.344C88.7811 222.419 85.3371 224.322 81.842 226.052C74.1911 229.859 66.5778 233.148 59.142 235.748C54.4516 237.308 53.1522 249.033 57.8426 247.473C65.1387 245.047 72.6124 241.93 80.2123 237.951C83.847 236.048 87.4817 234.145 91.2052 231.897C94.5982 229.822 98.7275 226.367 100.324 220.157C102.009 213.603 100.036 210.159 97.6561 207.922C95.2254 205.512 92.7948 203.103 90.5039 200.521C85.6803 195.185 81.3647 188.987 77.2774 182.27C72.7953 174.865 68.9609 166.424 65.5455 157.465C64.7427 155.398 62.7335 155.057 60.7775 157.474C59.05 159.373 57.8458 163.686 58.5089 165.926Z" fill="#FAE82E"/>
<path d="M102.906 190.74C108.236 192.563 111.849 198.561 115.67 203.39C120.056 208.885 124.577 214.214 128.964 219.709C131.224 222.373 133.301 225.038 135.561 227.702C135.893 228.202 136.225 228.702 136.692 229.034C137.306 229.867 136.704 229.701 136.925 229.2C136.79 229.368 137.44 227.198 137.44 227.198C137.44 227.198 134.531 229.206 134.077 229.54C126.798 234.227 119.519 238.914 112.241 243.601C104.004 248.79 95.8173 254.147 87.5811 259.336C85.5804 260.675 84.232 264.848 84.2333 267.351C84.3822 270.353 86.1875 270.85 88.0532 269.678C96.1052 264.489 104.292 259.133 112.393 254.11C120.445 248.921 128.461 244.233 136.549 238.543C140.048 236.033 143.544 231.021 143.983 225.014C144.422 219.008 140.971 216.68 138.894 214.016C133.992 208.021 129.139 202.193 124.236 196.198C121.595 192.867 118.769 189.537 116.127 186.207C113.584 183.209 110.906 180.379 107.565 179.052C105.944 178.555 103.809 180.061 102.533 183.234C101.258 186.406 101.42 190.076 102.906 190.74Z" fill="#FAE82E"/>
<path d="M144.552 196.171C145.556 195.158 146.028 195.494 146.872 195.829C148.236 196.668 149.564 198.014 150.842 199.191C153.535 201.375 156.141 203.897 158.834 206.082C164.319 210.789 169.803 215.495 175.338 220.37C178.13 222.892 181.058 225.245 183.85 227.766C184.843 228.607 185.786 229.279 186.506 230.457C186.792 230.793 186.891 231.13 187.09 231.804C187.09 231.804 187.338 232.646 187.189 232.141C187.189 232.141 187.14 231.972 187.276 231.803C187.152 232.646 187.152 232.646 187.326 231.972C188.429 231.295 187.09 231.804 187.412 231.634C187.226 231.635 186.867 232.31 186.731 232.479C185.999 233.154 185.404 233.661 184.673 234.337C182.615 236.195 180.557 238.054 178.449 239.744C174.742 242.954 170.85 246.165 167.093 249.206C158.526 256.135 149.86 262.727 141.181 268.645C139.16 269.998 137.748 274.045 137.799 276.742C137.95 279.775 139.773 280.276 141.658 279.092C150.473 273.006 159.14 266.414 167.843 259.316C172.194 255.768 176.546 252.219 180.934 248.164C184.914 244.616 190.245 241.234 192.995 234.15C198.408 220.319 188.408 215.454 184.251 212.092C178.009 206.714 171.768 201.335 165.526 195.956C162.027 192.93 158.527 189.904 155.028 186.879C152.099 184.526 148.773 180.826 144.026 185.555C142.154 187.413 140.493 190.619 140.644 193.652C140.794 196.685 142.544 198.198 144.552 196.171Z" fill="#FAE82E"/>
</svg>
