<svg width="197" height="415" viewBox="0 0 197 415" fill="none" xmlns="http://www.w3.org/2000/svg">
<path d="M27.4388 157.891C36.7975 174.338 46.1562 190.786 55.5149 207.233C56.7126 203.666 57.8603 199.928 59.1954 196.19C44.6998 200.466 30.0166 204.741 15.5209 209.016C13.609 209.53 11.574 213.439 11.3008 216.325C10.9403 219.551 12.3285 221.076 14.2405 220.563C28.7361 216.288 43.4193 212.012 57.915 207.737C61.2266 206.881 63.0967 199.238 61.5953 196.695C52.2366 180.247 42.878 163.8 33.5193 147.353C32.4559 145.657 29.9945 146.851 28.4089 149.74C26.6358 152.63 26.5128 156.026 27.4388 157.891Z" fill="#FAE82E" fill-opacity="0.15"/>
<path d="M58.5091 165.926C63.9892 180.57 70.8664 193.488 78.9877 204.162C83.0484 209.5 87.5281 214.319 92.0966 218.793C92.3894 219.138 92.8862 220.171 93.2676 220.17C93.8398 220.169 93.2299 220.688 93.6867 219.652C94.6514 217.754 92.7842 219.826 92.1743 220.345C88.7813 222.42 85.3372 224.322 81.8422 226.053C74.1912 229.859 66.578 233.149 59.1421 235.748C54.4518 237.308 53.1524 249.034 57.8427 247.474C65.1389 245.047 72.6125 241.93 80.2124 237.951C83.8472 236.048 87.4819 234.145 91.2053 231.897C94.5983 229.823 98.7276 226.367 100.324 220.158C102.01 213.603 100.036 210.159 97.6562 207.922C95.2256 205.513 92.7949 203.103 90.504 200.521C85.6805 195.186 81.3648 188.987 77.2775 182.27C72.7955 174.865 68.961 166.424 65.5457 157.465C64.7428 155.398 62.7336 155.057 60.7777 157.474C59.0501 159.374 57.846 163.686 58.5091 165.926Z" fill="#FAE82E" fill-opacity="0.15"/>
<path d="M102.905 190.74C108.235 192.563 111.848 198.561 115.669 203.39C120.056 208.885 124.577 214.214 128.963 219.709C131.224 222.373 133.301 225.038 135.561 227.702C135.893 228.202 136.225 228.702 136.692 229.034C137.306 229.867 136.704 229.701 136.925 229.2C136.79 229.368 137.44 227.198 137.44 227.198C137.44 227.198 134.531 229.206 134.076 229.54C126.798 234.227 119.519 238.914 112.24 243.601C104.004 248.79 95.8171 254.147 87.5809 259.336C85.5802 260.675 84.2318 264.848 84.2331 267.351C84.382 270.353 86.1873 270.85 88.053 269.678C96.105 264.489 104.292 259.133 112.393 254.11C120.445 248.921 128.461 244.233 136.549 238.543C140.047 236.033 143.544 231.021 143.983 225.014C144.422 219.008 140.97 216.68 138.894 214.016C133.992 208.021 129.138 202.193 124.236 196.198C121.594 192.867 118.769 189.537 116.127 186.207C113.584 183.209 110.906 180.379 107.565 179.052C105.944 178.555 103.808 180.061 102.533 183.234C101.258 186.406 101.419 190.076 102.905 190.74Z" fill="#FAE82E" fill-opacity="0.15"/>
<path d="M144.552 196.172C145.557 195.158 146.028 195.494 146.872 195.83C148.236 196.669 149.564 198.014 150.843 199.191C153.535 201.376 156.141 203.898 158.834 206.083C164.319 210.789 169.803 215.496 175.338 220.371C178.13 222.893 181.059 225.245 183.851 227.767C184.843 228.607 185.786 229.279 186.506 230.457C186.792 230.794 186.891 231.131 187.09 231.804C187.09 231.804 187.339 232.647 187.189 232.141C187.189 232.141 187.14 231.973 187.276 231.804C187.153 232.647 187.153 232.647 187.326 231.972C188.429 231.296 187.09 231.804 187.412 231.635C187.226 231.636 186.867 232.31 186.731 232.479C185.999 233.155 185.404 233.662 184.673 234.338C182.615 236.196 180.557 238.054 178.449 239.744C174.743 242.955 170.85 246.165 167.093 249.207C158.526 256.136 149.86 262.728 141.181 268.646C139.16 269.998 137.748 274.046 137.8 276.742C137.95 279.775 139.774 280.277 141.658 279.093C150.474 273.006 159.14 266.415 167.843 259.317C172.195 255.768 176.546 252.22 180.935 248.165C184.914 244.617 190.246 241.235 192.995 234.151C198.408 220.319 188.408 215.454 184.251 212.093C178.01 206.714 171.768 201.335 165.526 195.956C162.027 192.931 158.527 189.905 155.028 186.88C152.1 184.527 148.774 180.827 144.026 185.556C142.154 187.414 140.494 190.62 140.644 193.653C140.795 196.686 142.544 198.199 144.552 196.172Z" fill="#FAE82E" fill-opacity="0.15"/>
</svg>
