<svg width="483" height="463" viewBox="0 0 483 463" fill="none" xmlns="http://www.w3.org/2000/svg">
<path d="M66.3797 312.966C94.339 285.997 136.605 281.932 173.168 289.926C195.736 294.826 216.973 303.897 237.69 313.908C258.407 323.919 278.916 334.305 298.592 346.194C320.521 359.331 340.993 375.098 356.861 395.185C358.594 397.373 362.555 396.869 364.451 395.219C366.66 393.007 366.219 389.817 364.486 387.629C334.943 350.142 290.233 328.059 248.444 307.35C207.97 287.369 163.911 270.312 118.145 277.591C96.086 281.074 75.033 290.27 58.8031 305.821C53.8027 310.413 61.4629 317.851 66.3797 312.966Z" fill="#FAE82E"/>
<path d="M337.892 314.71C347.028 339.412 352.558 365.307 354.314 391.81C356.502 390.077 358.69 388.344 360.982 386.423C338.349 378.541 315.154 372.558 291.378 368.952C288.416 368.538 285.665 369.958 284.959 373.003C284.273 375.569 286.049 379.008 289.011 379.422C312.787 383.028 336.085 388.824 358.615 396.894C361.931 397.996 365.432 394.781 365.283 391.507C363.463 364.233 357.974 337.379 348.399 311.697C347.458 308.966 344.745 307.217 341.826 308.054C338.908 308.891 336.763 311.875 337.892 314.71Z" fill="#FAE82E"/>
<path d="M381.713 267.58C355.297 239.431 323.396 216.454 288.356 200.086C253.077 183.555 214.823 173.394 176.063 170.602C154.362 169.013 132.467 169.745 111.056 173.09C104.589 174.081 102.727 164.034 109.194 163.043C149.039 157.113 189.77 159.332 229.081 168.466C267.991 177.673 305.353 194.234 338.422 216.786C357 229.555 374.067 244.265 389.586 260.718C393.844 265.748 386.135 272.373 381.713 267.58Z" fill="#FAE82E"/>
<path d="M172.393 127.744C143.965 136.962 118.106 154.433 98.9007 177.529C97.5756 174.865 96.4514 172.163 95.1263 169.499C120.564 173.306 145.43 180.752 168.48 191.859C170.988 193.057 172.514 195.684 171.555 198.356C170.759 200.79 167.566 202.628 165.058 201.431C142.722 190.814 118.899 183.383 94.3017 179.628C90.8633 179.018 87.7965 174.806 90.5273 171.598C111.645 146.485 139.364 127.838 170.731 117.66C173.269 116.774 176.239 119.341 176.686 121.753C177.043 124.804 175.131 126.821 172.393 127.744Z" fill="#FAE82E"/>
</svg>
