<svg width="122" height="164" viewBox="0 0 122 164" fill="none" xmlns="http://www.w3.org/2000/svg">
<path d="M43.4405 14.9507C36.7783 23.4697 32.4954 33.91 31.2774 44.9416C30.008 56.1165 32.1295 67.5556 36.9913 77.2533C41.4922 86.213 48.8643 95.2252 58.4812 97.4007C63.1155 98.434 67.9255 97.7326 72.1634 95.2217C76.2199 92.8011 79.6382 89.0041 81.8082 84.5345C86.3492 75.1188 84.9386 63.608 79.8421 55.0626C77.2312 50.7152 73.7232 46.6264 69.0762 44.964C64.0394 43.1428 58.8404 45.4265 54.4948 48.3205C46.3062 53.7876 40.0242 62.6585 37.1361 72.6159C34.1965 82.7165 35.1532 93.5828 39.3699 102.919C43.5498 112.109 50.6979 119.421 59.5407 122.924C68.0353 126.317 85.381 126.344 93.9973 122.923C96.0711 122.126 98.0712 121.035 99.9879 119.845C101.723 118.746 100.373 115.7 98.5914 116.846C91.3708 121.525 75.0113 122.984 66.8609 121.537C58.4041 120.03 50.9581 115.126 45.8033 107.74C40.6019 100.4 37.9419 90.8759 38.7243 81.4732C39.5067 72.0705 43.7217 62.9819 50.0219 56.3845C53.1928 53.1107 57.0088 50.1981 61.0681 48.5998C63.2302 47.8053 65.5028 47.4499 67.6803 48.1067C69.6813 48.7573 71.4765 49.981 73.0342 51.5349C79.223 57.7006 82.7414 67.7381 81.0861 76.9166C79.4968 85.6623 72.7387 93.4526 64.4669 94.4193C55.5724 95.4609 47.8433 88.2738 42.9901 81.0427C37.4329 72.8681 34.2773 62.65 34.0859 52.391C33.8896 42.2286 36.5693 32.0221 41.6058 23.3008C42.8135 21.2638 44.1095 19.2298 45.5723 17.3952C46.0942 16.6881 46.3192 15.7289 45.6937 14.9815C45.1467 14.4303 44.0041 14.2934 43.4405 14.9507Z" fill="#050404"/>
<path d="M97.8076 127.628C98.9601 126.198 100.094 124.705 101.106 123.261C101.694 122.472 102.203 121.645 102.712 120.817C103.239 120.052 103.687 119.249 103.755 118.318C103.939 116.158 101.666 115.181 100.22 114.223C98.7741 113.265 97.3037 112.457 95.772 111.672C93.94 110.798 92.4378 113.827 94.2697 114.701C95.5441 115.309 96.7756 116.004 97.9458 116.723C98.5217 117.051 99.0547 117.466 99.6306 117.795C99.888 117.971 100.225 118.185 100.482 118.362C100.562 118.4 100.66 118.5 100.74 118.538C100.721 118.476 100.703 118.413 100.623 118.375C100.586 118.251 100.629 118.164 100.593 118.04C100.568 118.189 100.525 118.275 100.568 118.189C99.8324 119.175 99.066 120.522 98.3058 121.658C97.3801 122.928 96.4544 124.199 95.4491 125.432C94.1433 127.27 96.4651 129.341 97.8076 127.628Z" fill="#050404"/>
</svg>
