<svg width="85" height="94" viewBox="0 0 85 94" fill="none" xmlns="http://www.w3.org/2000/svg">
<path d="M52.1588 63.7591C57.2531 67.6186 62.0188 71.9445 66.5233 76.6323C67.6144 77.7843 68.7463 79.0003 69.7788 80.2006C70.1638 80.6648 70.6978 81.1526 70.9567 81.7695C71.1429 82.2022 71.0257 82.2989 70.6333 82.5247C70.0652 82.8955 69.4651 83.1461 68.8651 83.3966C68.1478 83.7438 67.3898 84.0269 66.6318 84.3101C65.2151 84.8921 63.7665 85.3538 62.2772 85.7515C58.9825 86.612 55.592 87.1118 52.2639 87.2183C51.6001 87.2283 51.0512 88.1206 51.1432 88.8263C51.2174 89.6445 51.81 90.0839 52.5325 90.0255C55.8109 89.9112 59.093 89.4519 62.3381 88.5835C63.9854 88.1532 65.6417 87.6667 67.2163 87.0522C68.6827 86.478 70.2485 85.9197 71.6013 85.0972C73.1211 84.1859 73.9933 82.5385 73.3658 80.7111C72.7613 79.0602 71.3312 77.797 70.249 76.5888C67.8628 73.9645 65.3595 71.4369 62.7797 69.0699C59.8877 66.4231 56.9281 63.8808 53.8336 61.5476C53.2906 61.116 52.5185 61.1665 52.0639 61.7857C51.5684 62.3408 51.607 63.3837 52.1588 63.7591Z" fill="#050404"/>
<path d="M20.9816 1.68293C16.1664 5.06737 12.5395 10.5984 10.6838 16.5251C9.84125 19.2716 9.2969 22.0653 9.29919 24.9456C9.27848 27.6494 9.90382 30.4556 10.673 32.9966C11.0417 34.2069 11.5187 35.3768 12.0045 36.4905C12.6447 37.9167 13.2848 39.3429 14.0421 40.6724C15.5249 43.2112 17.8279 45.0735 20.2111 46.4301C22.7345 47.8666 25.496 48.7647 28.2522 49.3741C31.3066 50.0306 34.5546 50.4299 37.6929 50.2357C40.9394 50.0012 44.197 48.7315 46.4755 45.9245C48.4433 43.4714 49.176 40.1316 48.1798 37.0939C47.2882 34.3607 45.2373 32.1928 42.9268 31.0204C40.3767 29.7526 37.5137 29.8175 34.8383 30.9489C29.2124 33.341 25.0863 39.7721 23.1454 45.9157C22.1323 49.0959 21.5805 52.5796 21.9677 55.9241C22.4188 59.509 23.9706 62.5771 26.3426 64.9688C28.8957 67.5043 32.0206 69.324 35.0053 71.0639C38.2207 72.9555 41.5125 74.6865 44.8985 76.1444C51.6119 79.1084 58.6487 81.3173 65.8101 82.7395C67.5902 83.0791 69.3296 83.3545 71.1275 83.5817C72.7267 83.7774 73.1716 80.968 71.5725 80.7723C58.1013 78.9842 45.1017 74.2182 33.4328 66.8406C30.8864 65.2277 28.1591 63.4709 26.387 60.8287C24.819 58.5068 24.2115 55.5883 24.3671 52.6754C24.5495 49.594 25.3869 46.5587 26.6359 43.819C27.8174 41.1838 29.3965 38.6116 31.3924 36.6238C33.3297 34.6843 35.652 33.2089 38.2436 32.9282C40.3701 32.689 42.5493 33.7254 44.1337 35.3011C45.6186 36.861 46.4999 39.0165 46.0445 41.2484C45.4504 44.0342 43.0658 45.9029 40.742 46.7444C37.7685 47.8286 34.43 47.3574 31.4304 46.9975C28.9865 46.668 26.5373 46.0497 24.1823 45.1583C21.8859 44.2186 19.634 42.998 17.7871 41.1503C16.0306 39.3746 15.004 36.8504 13.9507 34.4949C12.979 32.2674 12.3908 29.8703 12.0191 27.3923C11.6208 25.0829 11.801 22.9803 12.2245 20.6282C13.2012 15.4262 15.7541 10.2435 19.3447 6.54993C20.3178 5.55209 21.3139 4.73069 22.4094 3.92503C22.9865 3.49804 23.0881 2.53495 22.7209 1.95841C22.3129 1.31781 21.5586 1.25594 20.9816 1.68293Z" fill="#050404"/>
</svg>
