<svg width="200" height="138" viewBox="0 0 200 138" fill="none" xmlns="http://www.w3.org/2000/svg">
<path d="M43.9061 49.95C52.5504 49.95 61.0005 52.5134 68.188 57.3159C75.3755 62.1184 80.9774 68.9444 84.2854 76.9307C87.5935 84.9169 88.459 93.7048 86.7726 102.183C85.0862 110.661 80.9235 118.449 74.8111 124.561C68.6987 130.674 60.911 134.836 52.4328 136.523C43.9546 138.209 35.1667 137.344 27.1804 134.036C19.1941 130.728 12.3681 125.126 7.56564 117.938C2.76313 110.751 0.1998 102.301 0.1998 93.6563L0 87.4126C0 64.2293 9.20951 41.9956 25.6026 25.6026C41.9956 9.20951 64.2293 0 87.4126 0V24.975C79.2096 24.953 71.0835 26.5573 63.5044 29.6953C55.9253 32.8332 49.0434 37.4426 43.2567 43.2567C41.0077 45.5016 38.9329 47.9145 37.0504 50.4745C39.2857 50.1249 41.5709 49.9376 43.8936 49.9376L43.9061 49.95ZM156.294 49.95C164.938 49.95 173.388 52.5134 180.576 57.3159C187.763 62.1184 193.365 68.9444 196.673 76.9307C199.981 84.9169 200.847 93.7048 199.16 102.183C197.474 110.661 193.311 118.449 187.199 124.561C181.086 130.674 173.299 134.836 164.82 136.523C156.342 138.209 147.554 137.344 139.568 134.036C131.582 130.728 124.756 125.126 119.953 117.938C115.151 110.751 112.587 102.301 112.587 93.6563L112.388 87.4126C112.388 64.2293 121.597 41.9956 137.99 25.6026C154.383 9.20951 176.617 0 199.8 0V24.975C191.597 24.953 183.471 26.5573 175.892 29.6953C168.313 32.8332 161.431 37.4426 155.644 43.2567C153.395 45.5016 151.321 47.9145 149.438 50.4745C151.673 50.1249 153.959 49.9376 156.294 49.9376V49.95Z" fill="#FEFEFE"/>
</svg>
