<svg width="24" height="23" viewBox="0 0 24 23" fill="none" xmlns="http://www.w3.org/2000/svg">
<path d="M15.75 0.000976563C15.9531 0.000976563 16.1289 0.0751953 16.2773 0.223633L23.7773 7.72363C23.9258 7.87207 24 8.04785 24 8.25098C24 8.4541 23.9258 8.62988 23.7773 8.77832L20.9297 11.626C21.125 11.8213 21.3164 12.0088 21.5039 12.1885C21.6914 12.3682 21.8555 12.5518 21.9961 12.7393C22.1367 12.9268 22.2539 13.1377 22.3477 13.3721C22.4414 13.6064 22.4883 13.8682 22.4883 14.1572C22.4883 14.4697 22.4297 14.7666 22.3125 15.0479C22.1953 15.3291 22.0352 15.5752 21.832 15.7861C21.6289 15.9971 21.3906 16.165 21.1172 16.29C20.8438 16.415 20.5508 16.4814 20.2383 16.4893C20.2227 16.8096 20.1562 17.1025 20.0391 17.3682C19.9219 17.6338 19.7656 17.8682 19.5703 18.0713C19.375 18.2744 19.1406 18.4346 18.8672 18.5518C18.5938 18.6689 18.3008 18.7314 17.9883 18.7393C17.9805 19.0518 17.9141 19.3447 17.7891 19.6182C17.6641 19.8916 17.4961 20.1299 17.2852 20.333C17.0742 20.5361 16.8281 20.7002 16.5469 20.8252C16.2656 20.9502 15.9688 21.0088 15.6562 21.001C15.4062 21.001 15.1523 20.958 14.8945 20.8721C14.8086 21.1143 14.6953 21.333 14.5547 21.5283C14.4141 21.7236 14.2422 21.8955 14.0391 22.0439C13.8359 22.1924 13.6211 22.3057 13.3945 22.3838C13.168 22.4619 12.9219 22.501 12.6562 22.501C12.4531 22.501 12.2734 22.4854 12.1172 22.4541C11.9609 22.4229 11.8164 22.3682 11.6836 22.29C11.5508 22.2119 11.418 22.126 11.2852 22.0322C11.1523 21.9385 11.0156 21.8252 10.875 21.6924C10.6016 21.9424 10.3359 22.1377 10.0781 22.2783C9.82031 22.4189 9.49219 22.4932 9.09375 22.501C8.78125 22.501 8.48438 22.4424 8.20312 22.3252C7.92188 22.208 7.67578 22.0479 7.46484 21.8447C7.25391 21.6416 7.08594 21.4033 6.96094 21.1299C6.83594 20.8564 6.76953 20.5596 6.76172 20.2393C6.45703 20.2314 6.16797 20.1689 5.89453 20.0518C5.62109 19.9346 5.38281 19.7744 5.17969 19.5713C4.97656 19.3682 4.81641 19.1299 4.69922 18.8564C4.58203 18.583 4.51953 18.2939 4.51172 17.9893C4.19922 17.9814 3.91016 17.9189 3.64453 17.8018C3.37891 17.6846 3.14453 17.5244 2.94141 17.3213C2.73828 17.1182 2.57812 16.8799 2.46094 16.6064C2.34375 16.333 2.27734 16.0439 2.26172 15.7393C1.94141 15.7314 1.64453 15.665 1.37109 15.54C1.09766 15.415 0.859375 15.2471 0.65625 15.0361C0.453125 14.8252 0.292969 14.583 0.175781 14.3096C0.0585938 14.0361 0 13.7393 0 13.4189C0 13.0986 0.0585938 12.7979 0.175781 12.5166C0.292969 12.2354 0.464844 11.9814 0.691406 11.7549L1.93359 10.501L0.222656 8.77832C0.0742188 8.62988 0 8.4541 0 8.25098C0 8.04785 0.0742188 7.87207 0.222656 7.72363L7.72266 0.223633C7.87109 0.0751953 8.04688 0.000976563 8.25 0.000976563C8.45312 0.000976563 8.62891 0.0751953 8.77734 0.223633L10.3242 1.77051C10.4258 1.73926 10.6211 1.67285 10.9102 1.57129C11.1992 1.46973 11.5391 1.35645 11.9297 1.23145C12.3203 1.10645 12.7227 0.969727 13.1367 0.821289C13.5508 0.672852 13.9492 0.540039 14.332 0.422852C14.7148 0.305664 15.0312 0.204102 15.2812 0.118164C15.5312 0.0322266 15.6875 -0.00683594 15.75 0.000976563ZM3.65625 11.251C3.42969 11.251 3.23438 11.333 3.07031 11.4971L1.74609 12.8096C1.58203 12.9736 1.5 13.1729 1.5 13.4072C1.5 13.6416 1.57812 13.8369 1.73438 13.9932C1.89062 14.1494 2.08984 14.2314 2.33203 14.2393C2.57422 14.2393 2.77344 14.1611 2.92969 14.0049L4.25391 12.6924C4.41797 12.5283 4.5 12.3291 4.5 12.0947C4.5 11.8604 4.41797 11.6611 4.25391 11.4971C4.08984 11.333 3.89062 11.251 3.65625 11.251ZM5.90625 13.501C5.79688 13.501 5.69141 13.5205 5.58984 13.5596C5.48828 13.5986 5.39453 13.6611 5.30859 13.7471L3.99609 15.0713C3.83203 15.2354 3.75 15.4346 3.75 15.6689C3.75 15.8955 3.83203 16.0869 3.99609 16.2432C4.16016 16.3994 4.35938 16.4814 4.59375 16.4893C4.70312 16.4893 4.80859 16.4697 4.91016 16.4307C5.01172 16.3916 5.10547 16.333 5.19141 16.2549L6.50391 14.9307C6.66797 14.7666 6.75 14.5713 6.75 14.3447C6.75 14.1104 6.66797 13.9111 6.50391 13.7471C6.33984 13.583 6.14062 13.501 5.90625 13.501ZM8.15625 15.751C7.92969 15.751 7.73438 15.833 7.57031 15.9971L6.24609 17.3096C6.08203 17.4736 6 17.6729 6 17.9072C6 18.1416 6.07812 18.3369 6.23438 18.4932C6.39062 18.6494 6.58984 18.7314 6.83203 18.7393C7.07422 18.7393 7.27344 18.6611 7.42969 18.5049L8.75391 17.1924C8.91797 17.0283 9 16.8291 9 16.5947C9 16.3604 8.91797 16.1611 8.75391 15.9971C8.58984 15.833 8.39062 15.751 8.15625 15.751ZM8.25 20.1689C8.25 20.3955 8.33203 20.5869 8.49609 20.7432C8.66016 20.8994 8.85938 20.9814 9.09375 20.9893C9.20312 20.9893 9.30859 20.9697 9.41016 20.9307C9.51172 20.8916 9.60547 20.833 9.69141 20.7549L11.0039 19.4307C11.168 19.2666 11.25 19.0713 11.25 18.8447C11.25 18.6104 11.168 18.4111 11.0039 18.2471C10.8398 18.083 10.6406 18.001 10.4062 18.001C10.2969 18.001 10.1914 18.0205 10.0898 18.0596C9.98828 18.0986 9.89453 18.1611 9.80859 18.2471L8.49609 19.5713C8.33203 19.7354 8.25 19.9346 8.25 20.1689ZM20.1562 15.001C20.3828 15.001 20.5781 14.9189 20.7422 14.7549C20.9062 14.5908 20.9922 14.3955 21 14.1689C21 13.9346 20.918 13.7354 20.7539 13.5713L13.3477 6.15332C13.3242 6.12988 13.2852 6.11035 13.2305 6.09473C13.1758 6.0791 13.1211 6.06348 13.0664 6.04785C13.0117 6.03223 12.9531 6.02051 12.8906 6.0127C12.8281 6.00488 12.7812 6.00098 12.75 6.00098C12.5469 6.00098 12.3555 6.04004 12.1758 6.11816C11.9961 6.19629 11.8359 6.30176 11.6953 6.43457C11.5547 6.56738 11.4453 6.72754 11.3672 6.91504C11.2891 7.10254 11.25 7.29785 11.25 7.50098C11.25 7.91504 11.1719 8.30176 11.0156 8.66113C10.8594 9.02051 10.6445 9.34082 10.3711 9.62207C10.0977 9.90332 9.78125 10.1182 9.42188 10.2666C9.0625 10.415 8.67188 10.4932 8.25 10.501C7.9375 10.501 7.64453 10.4424 7.37109 10.3252C7.09766 10.208 6.85938 10.0479 6.65625 9.84473C6.45312 9.6416 6.29297 9.40332 6.17578 9.12988C6.05859 8.85645 6 8.56348 6 8.25098C6 8.06348 6.01953 7.85645 6.05859 7.62988C6.09766 7.40332 6.16016 7.20019 6.24609 7.02051L8.4375 2.62598C8.50781 2.50098 8.61328 2.39941 8.75391 2.32129L8.25 1.81738L1.80469 8.25098L3.38672 9.82129C3.73828 9.78223 4.07031 9.80566 4.38281 9.8916C4.69531 9.97754 4.96875 10.1221 5.20312 10.3252C5.4375 10.5283 5.625 10.7744 5.76562 11.0635C5.90625 11.3525 5.98047 11.6768 5.98828 12.0361C6.30078 12.0518 6.59375 12.1143 6.86719 12.2236C7.14062 12.333 7.375 12.4893 7.57031 12.6924C7.76562 12.8955 7.92578 13.1299 8.05078 13.3955C8.17578 13.6611 8.23828 13.958 8.23828 14.2861C8.55078 14.3018 8.84375 14.3643 9.11719 14.4736C9.39062 14.583 9.625 14.7393 9.82031 14.9424C10.0156 15.1455 10.1758 15.3799 10.3008 15.6455C10.4258 15.9111 10.4883 16.208 10.4883 16.5361C10.8086 16.5518 11.1055 16.6182 11.3789 16.7354C11.6523 16.8525 11.8906 17.0127 12.0938 17.2158C12.2969 17.4189 12.457 17.6611 12.5742 17.9424C12.6914 18.2236 12.75 18.5244 12.75 18.8447C12.75 19.1963 12.6797 19.5244 12.5391 19.8291C12.3984 20.1338 12.1953 20.3994 11.9297 20.626C12.0469 20.7354 12.1523 20.8252 12.2461 20.8955C12.3398 20.9658 12.4766 21.001 12.6562 21.001C12.8828 21.001 13.0781 20.9189 13.2422 20.7549C13.4062 20.5908 13.4922 20.3955 13.5 20.1689C13.5 19.9346 13.418 19.7354 13.2539 19.5713L14.3086 18.5049L15.0703 19.2549C15.25 19.4189 15.4453 19.501 15.6562 19.501C15.8828 19.501 16.0781 19.4189 16.2422 19.2549C16.4062 19.0908 16.4922 18.8955 16.5 18.6689C16.5 18.4346 16.418 18.2354 16.2539 18.0713L14.9297 16.7471L15.9961 15.6924L17.3086 17.0049C17.4727 17.1689 17.6719 17.251 17.9062 17.251C18.1406 17.251 18.3398 17.1689 18.5039 17.0049C18.668 16.8408 18.75 16.6416 18.75 16.4072C18.75 16.1729 18.668 15.9736 18.5039 15.8096L17.1797 14.4971L18.2461 13.4307L19.5703 14.7549C19.7344 14.9189 19.9297 15.001 20.1562 15.001ZM22.1836 8.25098L15.5508 1.60645L9.64453 3.5752L7.60547 7.65332C7.56641 7.72363 7.53906 7.82129 7.52344 7.94629C7.50781 8.07129 7.5 8.17285 7.5 8.25098C7.5 8.4541 7.57422 8.62988 7.72266 8.77832C7.87109 8.92676 8.04688 9.00098 8.25 9.00098C8.46094 9.00098 8.65625 8.96191 8.83594 8.88379C9.01562 8.80566 9.17188 8.7002 9.30469 8.56738C9.4375 8.43457 9.54688 8.27441 9.63281 8.08691C9.71875 7.89941 9.75781 7.7041 9.75 7.50098C9.75 7.08691 9.82812 6.70019 9.98438 6.34082C10.1406 5.98145 10.3555 5.66113 10.6289 5.37988C10.9023 5.09863 11.2188 4.88379 11.5781 4.73535C11.9375 4.58691 12.3281 4.50879 12.75 4.50098C12.875 4.50098 13.0078 4.5127 13.1484 4.53613C13.2891 4.55957 13.4375 4.59082 13.5938 4.62988C13.75 4.66895 13.8867 4.72363 14.0039 4.79395C14.1211 4.86426 14.2344 4.94629 14.3438 5.04004L19.875 10.5713L22.1836 8.25098Z" fill="#050404"/>
</svg>
