<svg width="242" height="253" viewBox="0 0 242 253" fill="none" xmlns="http://www.w3.org/2000/svg">
<path d="M90.6628 12.1875C119.069 44.8819 151.348 74.0707 186.515 99.2321C191.134 102.432 195.753 105.632 200.175 108.728C202.925 110.688 206.581 112.369 208.114 115.199C208.3 115.802 208.694 116.011 208.184 116.498C207.778 116.789 205.875 117.045 204.97 117.324C200.272 117.616 195.305 116.504 190.525 115.996C168.421 113.395 146.329 110.296 124.236 107.196C102.248 103.899 79.9473 101.194 57.9745 105.984C55.9675 106.438 54.5296 108.202 54.2868 110.093C51.8663 119.922 60.5014 126.508 67.268 131.854C76.2864 139.147 85.409 146.244 94.4274 153.538C102.076 159.603 110.525 165.586 115.924 173.995C119.872 180.374 121.198 187.892 120.134 195.156C118.85 203.313 114.676 211.204 107.972 216.243C105.537 217.984 104.563 221.257 106.201 223.89C107.745 226.221 111.412 227.403 113.847 225.661C128.264 215.108 134.892 195.892 130.093 178.711C127.42 168.966 120.907 161.23 113.572 154.573C104.959 146.989 95.5351 139.986 86.7141 132.796C81.6187 128.587 76.419 124.575 71.3237 120.365C69.7568 119.032 67.9926 117.594 66.7273 116.167C65.462 114.741 64.9858 113.732 65.4145 112.444C64.1853 113.813 62.956 115.183 61.7268 116.552C81.391 112.309 101.894 115.073 121.596 117.918C144.779 121.342 167.869 124.464 191.168 127.192C199.928 128.29 213.737 131.301 218.756 121.332C223.671 111.56 213.655 104.244 206.772 99.5943C187.994 86.8865 170.039 73.0993 153.104 58.337C133.721 41.5222 115.764 23.4421 98.9317 4.18969C96.8886 1.84692 93.0833 2.35913 91.0421 4.30925C88.0961 6.53824 88.6197 9.84468 90.6628 12.1875Z" fill="#FAE82E"/>
<path d="M84.3221 180.761C89.6148 185.075 93.9798 190.665 96.4307 197.011C97.7549 200.236 98.5801 203.449 98.9993 206.953C99.4186 210.457 99.1416 213.845 99.3636 217.244C100.272 225.551 106.32 231.779 115.219 231.183C123.92 230.483 132.225 225.281 139.893 221.762C149.683 217.094 159.566 212.727 169.357 208.058C172.083 206.723 172.673 202.743 171.129 200.411C169.398 197.477 166.208 197.304 163.482 198.64C153.088 203.494 142.799 208.151 132.603 213.11C128.16 215.305 123.613 217.697 118.984 219.289C116.571 220.032 112.442 221.635 111.013 218.608C109.585 215.58 110.592 210.811 110.266 207.609C109.765 203.305 109.067 198.896 107.464 194.766C104.362 186.31 99.149 178.504 92.0921 172.752C89.8404 170.804 86.3481 170.724 84.2026 172.872C82.0571 175.019 82.0704 178.813 84.3221 180.761Z" fill="#FAE82E"/>
</svg>
